<svg xmlns="http://www.w3.org/2000/svg" xmlns:xlink="http://www.w3.org/1999/xlink" fill="#000000" height="800px" width="800px" version="1.1" id="Layer_1" viewBox="0 0 508 508" xml:space="preserve">
<g>
	<g>
		<path d="M204.5,408.2l-18.9-250.5c-0.6-7.8-7.4-13.6-15.1-13c-7.8,0.6-13.6,7.4-13,15.1l18.9,250.5c0.6,7.4,6.3,13.7,15.1,13    C199.3,422.7,205.1,415.9,204.5,408.2z"/>
	</g>
</g>
<g>
	<g>
		<path d="M337.5,144.7c-7.8-0.6-14.5,5.2-15.1,13l-18.9,250.5c-0.6,7.7,5.2,14.5,13,15.1c8.9,0.7,14.6-5.6,15.1-13l18.9-250.5    C351.1,152,345.3,145.3,337.5,144.7z"/>
	</g>
</g>
<g>
	<g>
		<path d="M455.1,60h-136V35.3c0-19.5-15.8-35.3-35.3-35.3h-59.6c-19.5,0-35.3,15.8-35.3,35.3V60h-136c-7.8,0-14.1,6.3-14.1,14.1    s6.3,14.1,14.1,14.1h14.2l27.8,367.6c2.2,29.3,26.9,52.2,56.3,52.2h205.6c29.4,0,54.1-22.9,56.3-52.2l27.8-367.6h14.2    c7.8,0,14.1-6.3,14.1-14.1S462.9,60,455.1,60z M224.2,28.2h59.6c3.9,0,7.1,3.2,7.1,7.1V60h-73.7V35.3h-0.1    C217.1,31.4,220.3,28.2,224.2,28.2z M384.9,453.7c-1.1,14.6-13.5,26.1-28.1,26.1H151.2c-14.7,0-27-11.5-28.1-26.1L95.4,88.2h317.1    L384.9,453.7z"/>
	</g>
</g>
</svg>